# 3ds Max Wavefront OBJ Exporter v0.94b - (c)2007 guruware
# File Created: 02.01.2010 13:28:35

#
# object _____
#

v  -8.5000 -8.5000 -1.1000
v  -8.5000 8.5000 -1.1000
v  8.5000 8.5000 -1.1000
v  8.5000 -8.5000 -1.1000
v  8.5000 -8.5000 -0.1000
v  -8.5000 -8.5000 -0.1000
v  8.5000 8.5000 -0.1000
v  -8.5000 8.5000 -0.1000
v  7.5000 -7.5000 -0.1000
v  -7.5000 -7.5000 -0.1000
v  7.5000 7.5000 -0.1000
v  -7.5000 7.5000 -0.1000
# 12 vertices

vn 0.0000 0.0000 -1.0000
vn 0.0000 -1.0000 0.0000
vn 1.0000 0.0000 0.0000
vn 0.0000 1.0000 0.0000
vn -1.0000 0.0000 0.0000
vn 0.0000 0.0000 1.0000
# 6 vertex normals

vt 0.9995 0.0005 0.0005
vt 0.9995 0.9995 0.0005
vt 0.0005 0.9995 0.0005
vt 0.0005 0.0005 0.0005
vt 0.0005 0.0005 0.9995
vt 0.9995 0.0005 0.9995
vt 0.9995 0.9995 0.9995
vt 0.0005 0.9995 0.9995
vt 0.9407 0.0593 0.9995
vt 0.0593 0.0593 0.9995
vt 0.9407 0.9407 0.9995
vt 0.0593 0.9407 0.9995
# 12 texture coords

g _____
f 1/1/1 2/2/1 3/3/1 
f 3/3/1 4/4/1 1/1/1 
f 1/4/2 4/1/2 5/2/2 
f 5/2/2 6/3/2 1/4/2 
f 4/5/3 3/6/3 7/7/3 
f 7/7/3 5/8/3 4/5/3 
f 3/5/4 2/6/4 8/7/4 
f 8/7/4 7/8/4 3/5/4 
f 2/4/5 1/1/5 6/2/5 
f 6/2/5 8/3/5 2/4/5 
f 6/5/6 5/6/6 9/9/6 
f 9/9/6 10/10/6 6/5/6 
f 5/6/6 7/7/6 11/11/6 
f 11/11/6 9/9/6 5/6/6 
f 7/7/6 8/8/6 12/12/6 
f 12/12/6 11/11/6 7/7/6 
f 8/8/6 6/5/6 10/10/6 
f 10/10/6 12/12/6 8/8/6 
# 18 faces

